<mxfile host="app.diagrams.net" modified="2023-09-27T06:17:03.233Z" agent="Mozilla/5.0 (Windows NT 10.0; Win64; x64) AppleWebKit/537.36 (KHTML, like Gecko) Chrome/119.0.0.0 Safari/537.36" etag="sLXTtpaXuriHfTIU0pBC" version="21.8.1" type="github">
  <diagram name="Página-1" id="jNS-OsoAPbzubsZ5zcvM">
    <mxGraphModel dx="1877" dy="541" grid="1" gridSize="10" guides="1" tooltips="1" connect="1" arrows="1" fold="1" page="1" pageScale="1" pageWidth="827" pageHeight="1169" math="0" shadow="0">
      <root>
        <mxCell id="0" />
        <mxCell id="1" parent="0" />
        <mxCell id="_Iu95v3-t_2ewTutbSRK-1" value="Usuarios" style="ellipse;whiteSpace=wrap;html=1;" vertex="1" parent="1">
          <mxGeometry x="-30" y="340" width="140" height="70" as="geometry" />
        </mxCell>
        <mxCell id="_Iu95v3-t_2ewTutbSRK-2" value="tipo_iden" style="ellipse;whiteSpace=wrap;html=1;" vertex="1" parent="1">
          <mxGeometry x="-120" y="200" width="110" height="70" as="geometry" />
        </mxCell>
        <mxCell id="_Iu95v3-t_2ewTutbSRK-3" value="no_iden" style="ellipse;whiteSpace=wrap;html=1;" vertex="1" parent="1">
          <mxGeometry y="200" width="100" height="70" as="geometry" />
        </mxCell>
        <mxCell id="_Iu95v3-t_2ewTutbSRK-4" value="nombre" style="ellipse;whiteSpace=wrap;html=1;" vertex="1" parent="1">
          <mxGeometry x="110" y="230" width="120" height="80" as="geometry" />
        </mxCell>
        <mxCell id="_Iu95v3-t_2ewTutbSRK-5" value="apellido" style="ellipse;whiteSpace=wrap;html=1;" vertex="1" parent="1">
          <mxGeometry x="170" y="320" width="120" height="80" as="geometry" />
        </mxCell>
        <mxCell id="_Iu95v3-t_2ewTutbSRK-6" value="direccion" style="ellipse;whiteSpace=wrap;html=1;" vertex="1" parent="1">
          <mxGeometry x="180" y="420" width="120" height="80" as="geometry" />
        </mxCell>
        <mxCell id="_Iu95v3-t_2ewTutbSRK-7" value="telefono" style="ellipse;whiteSpace=wrap;html=1;" vertex="1" parent="1">
          <mxGeometry x="50" y="480" width="120" height="80" as="geometry" />
        </mxCell>
        <mxCell id="_Iu95v3-t_2ewTutbSRK-8" value="email" style="ellipse;whiteSpace=wrap;html=1;" vertex="1" parent="1">
          <mxGeometry x="-90" y="480" width="120" height="80" as="geometry" />
        </mxCell>
        <mxCell id="_Iu95v3-t_2ewTutbSRK-9" value="contraseña" style="ellipse;whiteSpace=wrap;html=1;" vertex="1" parent="1">
          <mxGeometry x="-200" y="400" width="120" height="80" as="geometry" />
        </mxCell>
        <mxCell id="_Iu95v3-t_2ewTutbSRK-10" value="contraseña" style="ellipse;whiteSpace=wrap;html=1;" vertex="1" parent="1">
          <mxGeometry x="-230" y="270" width="120" height="80" as="geometry" />
        </mxCell>
        <mxCell id="_Iu95v3-t_2ewTutbSRK-13" value="" style="endArrow=none;html=1;rounded=0;" edge="1" parent="1" source="_Iu95v3-t_2ewTutbSRK-1">
          <mxGeometry width="50" height="50" relative="1" as="geometry">
            <mxPoint x="93.49747468305827" y="346.25126265847086" as="sourcePoint" />
            <mxPoint x="144" y="306" as="targetPoint" />
          </mxGeometry>
        </mxCell>
      </root>
    </mxGraphModel>
  </diagram>
</mxfile>
